<svg width="128" height="128" viewBox="0 0 128 128" fill="none" xmlns="http://www.w3.org/2000/svg">
<path fill-rule="evenodd" clip-rule="evenodd" d="M80 18.2092V37.3333H99.1242L80 18.2092ZM101.333 48H80C74.109 48 69.3333 43.2244 69.3333 37.3333V16H26.6667V112H101.333V48ZM26.6667 5.33334H82.2091L112 35.1242V112C112 117.891 107.224 122.667 101.333 122.667H26.6667C20.7756 122.667 16 117.891 16 112V16C16 10.109 20.7756 5.33334 26.6667 5.33334ZM58.6667 69.3333V53.3333H69.3333V69.3333H85.3333V80H69.3333V96H58.6667V80H42.6667V69.3333H58.6667Z" fill="black"/>
</svg>
