<svg width="350" height="125" viewBox="0 0 350 125" fill="none" xmlns="http://www.w3.org/2000/svg">
<path d="M0 62.5C0 27.9822 27.9822 0 62.5 0H87.5H131.25H153.125H175H218.75H240.625H262.5H287.5C322.018 0 350 27.9822 350 62.5C350 97.0178 322.018 125 287.5 125H262.5H218.75H175H131.25H87.5H62.5C27.9822 125 0 97.0178 0 62.5Z" fill="#043922"/>
<path d="M57.5 0H177.5C212.018 0 240 27.9822 240 62.5C240 97.0178 212.018 125 177.5 125H57.5V0Z" fill="#064429"/>
<circle cx="62.5" cy="62.5" r="62.5" fill="#055532"/>
<path d="M82.2945 57.1406H72.9621C72.7917 55.9332 72.4437 54.8608 71.9181 53.9233C71.3925 52.9716 70.7178 52.1619 69.894 51.4943C69.0701 50.8267 68.1184 50.3153 67.0388 49.9602C65.9735 49.6051 64.8158 49.4275 63.5658 49.4275C61.3073 49.4275 59.34 49.9886 57.6638 51.1108C55.9877 52.2187 54.688 53.8381 53.7647 55.9687C52.8414 58.0852 52.3798 60.6562 52.3798 63.6818C52.3798 66.7926 52.8414 69.4062 53.7647 71.5227C54.7022 73.6392 56.009 75.2372 57.6851 76.3167C59.3613 77.3963 61.3002 77.9361 63.5019 77.9361C64.7377 77.9361 65.8812 77.7727 66.9323 77.446C67.9977 77.1193 68.9423 76.6434 69.7661 76.0184C70.59 75.3792 71.2718 74.6051 71.8116 73.696C72.3655 72.7869 72.7491 71.75 72.9621 70.5852L82.2945 70.6278C82.053 72.6307 81.4494 74.5625 80.4834 76.4233C79.5317 78.2699 78.2462 79.9247 76.6269 81.3878C75.0218 82.8366 73.1042 83.9872 70.8741 84.8395C68.6582 85.6775 66.1511 86.0966 63.3528 86.0966C59.4607 86.0966 55.9806 85.2159 52.9124 83.4545C49.8584 81.6932 47.4437 79.1435 45.6681 75.8054C43.9067 72.4673 43.0261 68.4261 43.0261 63.6818C43.0261 58.9233 43.9209 54.875 45.7107 51.5369C47.5005 48.1988 49.9295 45.6562 52.9976 43.9091C56.0658 42.1477 59.5175 41.267 63.3528 41.267C65.8812 41.267 68.2249 41.6221 70.384 42.3324C72.5573 43.0426 74.482 44.0795 76.1582 45.4432C77.8343 46.7926 79.1979 48.4474 80.2491 50.4077C81.3144 52.3679 81.9962 54.6122 82.2945 57.1406ZM164.611 85.5H154.725L169.789 41.8636H181.678L196.721 85.5H186.834L175.904 51.8352H175.563L164.611 85.5ZM163.993 68.348H187.346V75.5497H163.993V68.348ZM293.649 54.4133C293.478 52.6946 292.747 51.3594 291.454 50.4077C290.161 49.4559 288.407 48.9801 286.191 48.9801C284.686 48.9801 283.414 49.1932 282.377 49.6193C281.34 50.0312 280.545 50.6065 279.991 51.3452C279.451 52.0838 279.181 52.9219 279.181 53.8594C279.153 54.6406 279.316 55.3224 279.671 55.9048C280.041 56.4872 280.545 56.9915 281.184 57.4176C281.823 57.8295 282.562 58.1917 283.4 58.5042C284.238 58.8025 285.133 59.0582 286.085 59.2713L290.005 60.2088C291.909 60.6349 293.656 61.2031 295.247 61.9133C296.838 62.6236 298.215 63.4971 299.38 64.5341C300.545 65.571 301.447 66.7926 302.086 68.1988C302.74 69.6051 303.073 71.2173 303.088 73.0355C303.073 75.7059 302.392 78.0213 301.042 79.9815C299.707 81.9275 297.775 83.4403 295.247 84.5199C292.732 85.5852 289.7 86.1179 286.149 86.1179C282.626 86.1179 279.558 85.5781 276.944 84.4986C274.345 83.419 272.313 81.821 270.85 79.7045C269.401 77.5738 268.641 74.9389 268.57 71.7997H277.498C277.597 73.2628 278.016 74.4844 278.755 75.4645C279.508 76.4304 280.509 77.1619 281.759 77.6591C283.024 78.142 284.451 78.3835 286.042 78.3835C287.605 78.3835 288.961 78.1562 290.112 77.7017C291.276 77.2471 292.178 76.615 292.818 75.8054C293.457 74.9957 293.776 74.0653 293.776 73.0142C293.776 72.0341 293.485 71.2102 292.903 70.5426C292.335 69.875 291.497 69.3068 290.389 68.8381C289.295 68.3693 287.953 67.9432 286.362 67.5596L281.61 66.3665C277.931 65.4716 275.026 64.0724 272.896 62.169C270.765 60.2656 269.707 57.7017 269.721 54.4773C269.707 51.8352 270.41 49.527 271.83 47.5525C273.265 45.5781 275.232 44.0369 277.732 42.929C280.232 41.821 283.073 41.267 286.255 41.267C289.494 41.267 292.32 41.821 294.735 42.929C297.164 44.0369 299.053 45.5781 300.403 47.5525C301.752 49.527 302.448 51.8139 302.491 54.4133H293.649Z" fill="white"/>
</svg>
