<svg width="9" height="12" viewBox="0 0 9 12" fill="none" xmlns="http://www.w3.org/2000/svg">
<path d="M6.75 5.8125V6.46875C6.75 6.62344 6.62344 6.75 6.46875 6.75H2.53125C2.37656 6.75 2.25 6.62344 2.25 6.46875V5.8125C2.25 5.65781 2.37656 5.53125 2.53125 5.53125H6.46875C6.62344 5.53125 6.75 5.65781 6.75 5.8125ZM6.46875 7.5H2.53125C2.37656 7.5 2.25 7.62656 2.25 7.78125V8.4375C2.25 8.59219 2.37656 8.71875 2.53125 8.71875H6.46875C6.62344 8.71875 6.75 8.59219 6.75 8.4375V7.78125C6.75 7.62656 6.62344 7.5 6.46875 7.5ZM9 3.09141V10.875C9 11.4961 8.49609 12 7.875 12H1.125C0.503906 12 0 11.4961 0 10.875V1.125C0 0.503906 0.503906 0 1.125 0H5.90859C6.20625 0 6.49219 0.119531 6.70312 0.330469L8.66953 2.29688C8.88047 2.50547 9 2.79375 9 3.09141ZM6 1.21641V3H7.78359L6 1.21641ZM7.875 10.875V4.125H5.4375C5.12578 4.125 4.875 3.87422 4.875 3.5625V1.125H1.125V10.875H7.875Z" fill="black"/>
</svg>
