<svg xmlns="http://www.w3.org/2000/svg" width="24" height="24" viewBox="0 0 24 24" fill="none">
<path d="M18.5418 9.28068C18.5454 7.1867 17.839 5.15325 16.5379 3.51187C15.2368 1.87049 13.4177 0.717987 11.3771 0.242266C9.33651 -0.233456 7.19485 -0.00433583 5.30127 0.89227C3.40769 1.78888 1.8739 3.30008 0.949955 5.1795C0.0260113 7.05893 -0.233585 9.19571 0.213491 11.2415C0.660566 13.2872 1.78794 15.1213 3.41182 16.4447C5.03569 17.7681 7.06028 18.5027 9.15549 18.5287C11.2507 18.5548 13.293 17.8708 14.9493 16.5882L22.366 24L24 22.3671L16.5833 14.9553C17.8482 13.3334 18.5372 11.337 18.5418 9.28068ZM9.27088 16.2292C7.89568 16.2292 6.55135 15.8217 5.40791 15.0582C4.26447 14.2947 3.37326 13.2094 2.847 11.9398C2.32073 10.6701 2.18303 9.27297 2.45132 7.92509C2.71961 6.5772 3.38184 5.33909 4.35425 4.36732C5.32667 3.39555 6.56561 2.73376 7.91439 2.46565C9.26317 2.19754 10.6612 2.33515 11.9317 2.86107C13.2023 3.38698 14.2882 4.2776 15.0522 5.42028C15.8162 6.56296 16.224 7.90639 16.224 9.28068C16.224 11.1235 15.4915 12.8909 14.1875 14.194C12.8835 15.4971 11.115 16.2292 9.27088 16.2292Z" fill="#CDCDCD"/>
</svg>